<svg width="1096.987671" height="373.675781" viewBox="0 0 938 178" fill="none" xmlns="http://www.w3.org/2000/svg" xmlns:xlink="http://www.w3.org/1999/xlink">
	<desc>
			Created with Pixso.
	</desc>
	<defs>
		<filter id="filter_13_31_dd" x="34.468750" y="11.765633" width="1096.987671" height="373.675781" filterUnits="userSpaceOnUse" color-interpolation-filters="sRGB">
			<feFlood flood-opacity="0" result="BackgroundImageFix"/>
			<feColorMatrix in="SourceAlpha" type="matrix" values="0 0 0 0 0 0 0 0 0 0 0 0 0 0 0 0 0 0 127 0" result="hardAlpha"/>
			<feOffset dx="0" dy="0"/>
			<feGaussianBlur stdDeviation="6.66667"/>
			<feComposite in2="hardAlpha" operator="out" k2="-1" k3="1"/>
			<feColorMatrix type="matrix" values="0 0 0 0 0.3098 0 0 0 0 0.76471 0 0 0 0 0.95294 0 0 0 1 0"/>
			<feBlend mode="normal" in2="BackgroundImageFix" result="effect_dropShadow_1"/>
			<feBlend mode="normal" in="SourceGraphic" in2="effect_dropShadow_1" result="shape"/>
		</filter>
	</defs>
	<rect id="Прямоугольник 3" y="0.000008" rx="62.000000" width="938.000000" height="177.000000" fill="#8B8A8A" fill-opacity="0.200000"/>
	<rect id="Прямоугольник 3" x="4.000000" y="4.000008" rx="62.000000" width="930.000000" height="169.000000" stroke="#00B4F9" stroke-opacity="1.000000" stroke-width="8.000000"/>
	<g filter="url(#filter_13_31_dd)">
		<path id="GENERATE" d="M148.65 73.21L109.06 73.21Q108.37 73.21 107.76 73.43Q106.97 73.72 106.32 74.37Q105.67 75.02 105.38 75.81Q105.16 76.42 105.16 77.11L105.16 93.11Q105.16 93.8 105.38 94.41Q105.67 95.2 106.32 95.85Q106.94 96.46 107.69 96.74Q108.33 96.98 109.06 96.98L115.81 96.98Q115.81 101.37 113.64 103.9Q110.69 107.35 103.72 107.35Q98.02 107.35 95.07 104.5Q91.91 101.44 91.91 95.11L91.91 70.64Q91.91 65.4 94.52 62.71Q97.3 59.85 103.02 59.85Q105.72 59.85 109.06 61.12Q110.5 61.71 113.39 65.44Q113.5 65.58 113.62 65.71Q114.91 67.02 117.53 67.02L149.39 67.02Q149.93 67.02 150.41 66.85Q151.06 66.63 151.6 66.11Q152.13 65.58 152.36 64.95Q152.55 64.44 152.55 63.86Q152.55 60.08 151.48 56.63Q148.72 47.73 138.84 41.04Q125.16 31.76 103.05 31.76Q80.97 31.76 67.72 41.92Q63.38 45.23 60.46 49.51Q54.46 58.31 54.46 71.21L54.46 95.39Q54.46 110.37 61.71 119.75Q64.16 122.92 67.44 125.45Q80.41 135.44 102.94 135.44Q125.48 135.44 139.02 125.14Q143.92 121.4 147.05 116.53Q152.55 107.95 152.55 95.85L152.55 77.11Q152.55 76.42 152.33 75.81Q152.04 75.02 151.39 74.37Q150.74 73.72 149.95 73.43Q149.34 73.21 148.65 73.21ZM247.3 105.91L202.93 105.91L202.93 96.83L242.97 96.83Q243.7 96.83 244.35 96.59Q245.09 96.31 245.71 95.71Q246.37 95.06 246.65 94.27Q246.87 93.66 246.87 92.97L246.87 74.23Q246.87 73.49 246.62 72.86Q246.34 72.12 245.71 71.52Q245.06 70.87 244.28 70.58Q243.67 70.36 242.97 70.36L202.93 70.36L202.93 61.29L246.14 61.29Q246.83 61.29 247.44 61.07Q248.23 60.78 248.88 60.13Q249.53 59.48 249.82 58.69Q250.04 58.08 250.04 57.39L250.04 37.07Q250.04 36.33 249.79 35.7Q249.5 34.96 248.88 34.36Q248.23 33.71 247.44 33.42Q246.83 33.2 246.14 33.2L172.27 33.2Q171.58 33.2 170.97 33.42Q170.18 33.71 169.53 34.36Q168.91 34.96 168.62 35.7Q168.37 36.33 168.37 37.07L168.37 130.09Q168.37 130.79 168.59 131.4Q168.88 132.18 169.53 132.84Q170.18 133.49 170.97 133.77Q171.58 134 172.27 134L247.3 134Q248.03 134 248.67 133.74Q249.4 133.46 250 132.84Q250.66 132.18 250.94 131.4Q251.16 130.79 251.16 130.09L251.16 109.81Q251.16 109.12 250.94 108.5Q250.66 107.72 250 107.07Q249.4 106.45 248.67 106.16Q248.03 105.91 247.3 105.91ZM355.29 33.2L329.24 33.2Q328.54 33.2 327.93 33.42Q327.15 33.71 326.49 34.36Q325.87 34.96 325.58 35.7Q325.33 36.33 325.33 37.07L325.33 76.41L301.01 36.51Q300.19 35.06 298.96 34.25Q297.37 33.2 295.1 33.2L272.35 33.2Q271.66 33.2 271.05 33.42Q270.26 33.71 269.61 34.36Q268.99 34.96 268.7 35.7Q268.45 36.33 268.45 37.07L268.45 130.09Q268.45 130.79 268.67 131.4Q268.96 132.18 269.61 132.84Q270.26 133.49 271.05 133.77Q271.66 134 272.35 134L298.4 134Q299.1 134 299.71 133.77Q300.49 133.49 301.15 132.84Q301.8 132.18 302.08 131.4Q302.31 130.79 302.31 130.09L302.31 93.95L326.63 130.69Q327.82 132.51 329.49 133.33Q330.85 134 332.54 134L355.29 134Q355.98 134 356.59 133.77Q357.38 133.49 358.03 132.84Q358.68 132.18 358.97 131.4Q359.19 130.79 359.19 130.09L359.19 37.07Q359.19 36.33 358.94 35.7Q358.65 34.96 358.03 34.36Q357.38 33.71 356.59 33.42Q355.98 33.2 355.29 33.2ZM456.82 105.91L412.45 105.91L412.45 96.83L452.49 96.83Q453.22 96.83 453.87 96.59Q454.61 96.31 455.23 95.71Q455.89 95.06 456.17 94.27Q456.39 93.66 456.39 92.97L456.39 74.23Q456.39 73.49 456.14 72.86Q455.86 72.12 455.23 71.52Q454.58 70.87 453.8 70.58Q453.19 70.36 452.49 70.36L412.45 70.36L412.45 61.29L455.66 61.29Q456.35 61.29 456.96 61.07Q457.75 60.78 458.4 60.13Q459.05 59.48 459.34 58.69Q459.56 58.08 459.56 57.39L459.56 37.07Q459.56 36.33 459.31 35.7Q459.02 34.96 458.4 34.36Q457.75 33.71 456.96 33.42Q456.35 33.2 455.66 33.2L381.79 33.2Q381.1 33.2 380.49 33.42Q379.7 33.71 379.05 34.36Q378.43 34.96 378.14 35.7Q377.89 36.33 377.89 37.07L377.89 130.09Q377.89 130.79 378.11 131.4Q378.4 132.18 379.05 132.84Q379.7 133.49 380.49 133.77Q381.1 134 381.79 134L456.82 134Q457.55 134 458.19 133.74Q458.92 133.46 459.52 132.84Q460.18 132.18 460.46 131.4Q460.68 130.79 460.68 130.09L460.68 109.81Q460.68 109.12 460.46 108.5Q460.18 107.72 459.52 107.07Q458.92 106.45 458.19 106.16Q457.55 105.91 456.82 105.91ZM570.82 129.49Q570.77 129.37 570.71 129.25L552.99 96.41Q561.86 90.75 565.68 82.69Q568.57 76.6 568.57 69.13Q568.57 57.04 562.91 48.86Q560.44 45.3 556.9 42.48Q545.22 33.2 524.48 33.2L481.87 33.2Q481.18 33.2 480.57 33.42Q479.78 33.71 479.13 34.36Q478.51 34.96 478.22 35.7Q477.97 36.33 477.97 37.07L477.97 130.09Q477.97 130.79 478.19 131.4Q478.48 132.18 479.13 132.84Q479.78 133.49 480.57 133.77Q481.18 134 481.87 134L510.1 134Q510.84 134 511.48 133.74Q512.21 133.46 512.81 132.84Q513.46 132.18 513.75 131.4Q513.97 130.79 513.97 130.09L513.97 102.6L519.88 102.6L532.25 130.09Q533.07 131.9 534.47 132.88Q536.08 134 538.47 134L567.97 134Q568.64 134 569.2 133.76Q569.74 133.53 570.19 133.08Q571.06 132.21 571.13 131.27Q571.14 131.19 571.14 131.11Q571.14 130.24 570.82 129.49ZM647.61 33.2L616.35 33.2Q613.6 33.2 611.94 34.55Q610.49 35.73 609.89 37.95L577.79 129.81Q577.61 130.27 577.61 131.22Q577.61 132.13 578.56 133.08Q579.06 133.56 579.65 133.79Q580.19 134 580.81 134L607.42 134Q609.99 134 611.5 132.73Q612.52 131.86 613.05 130.41L616.49 120.88L647.47 120.88L650.91 130.41Q651.44 131.86 652.46 132.73Q653.97 134 656.54 134L683.19 134Q683.85 134 684.41 133.76Q684.95 133.53 685.4 133.08Q686.35 132.13 686.35 131.22Q686.35 130.27 686.21 129.81L654.08 37.95Q653.49 35.76 652.07 34.58Q650.41 33.2 647.61 33.2ZM781.11 33.2L696.7 33.2Q696.01 33.2 695.39 33.42Q694.61 33.71 693.96 34.36Q693.38 34.94 693.1 35.63Q692.83 36.29 692.83 37.07L692.83 60.27Q692.83 61 693.07 61.65Q693.35 62.39 693.96 63.01Q694.58 63.62 695.33 63.9Q695.97 64.14 696.7 64.14L720.61 64.14L720.61 130.09Q720.61 130.79 720.83 131.4Q721.11 132.18 721.77 132.84Q722.42 133.49 723.2 133.77Q723.81 134 724.51 134L753.3 134Q753.99 134 754.61 133.77Q755.39 133.49 756.04 132.84Q756.69 132.18 756.98 131.4Q757.2 130.79 757.2 130.09L757.2 64.14L781.11 64.14Q781.88 64.14 782.55 63.87Q783.24 63.59 783.82 63.01Q784.47 62.36 784.75 61.58Q784.98 60.97 784.98 60.27L784.98 37.07Q784.98 36.33 784.73 35.7Q784.44 34.96 783.82 34.36Q783.21 33.74 782.48 33.45Q781.84 33.2 781.11 33.2ZM877.58 105.91L833.22 105.91L833.22 96.83L873.26 96.83Q873.99 96.83 874.63 96.59Q875.38 96.31 876 95.71Q876.65 95.06 876.94 94.27Q877.16 93.66 877.16 92.97L877.16 74.23Q877.16 73.49 876.91 72.86Q876.62 72.12 876 71.52Q875.35 70.87 874.57 70.58Q873.95 70.36 873.26 70.36L833.22 70.36L833.22 61.29L876.42 61.29Q877.12 61.29 877.73 61.07Q878.51 60.78 879.17 60.13Q879.82 59.48 880.1 58.69Q880.33 58.08 880.33 57.39L880.33 37.07Q880.33 36.33 880.08 35.7Q879.79 34.96 879.17 34.36Q878.51 33.71 877.73 33.42Q877.12 33.2 876.42 33.2L802.56 33.2Q801.87 33.2 801.26 33.42Q800.47 33.71 799.82 34.36Q799.2 34.96 798.91 35.7Q798.66 36.33 798.66 37.07L798.66 130.09Q798.66 130.79 798.88 131.4Q799.17 132.18 799.82 132.84Q800.47 133.49 801.26 133.77Q801.87 134 802.56 134L877.58 134Q878.32 134 878.96 133.74Q879.69 133.46 880.29 132.84Q880.94 132.18 881.23 131.4Q881.45 130.79 881.45 130.09L881.45 109.81Q881.45 109.12 881.23 108.5Q880.94 107.72 880.29 107.07Q879.69 106.45 878.96 106.16Q878.32 105.91 877.58 105.91ZM513.97 75.25L513.97 59.99L524.48 59.99Q526.62 59.99 528.07 60.99Q528.86 61.54 529.44 62.38Q529.89 63.02 530.23 63.71Q531.13 65.59 531.13 67.9Q531.13 70.41 530.02 72.26Q529.73 72.74 529.37 73.17Q528.88 73.77 528.27 74.19Q526.74 75.25 524.48 75.25L513.97 75.25ZM640.12 92.83L623.84 92.83L631.93 66.04L640.12 92.83Z" fill="#00B4F9" fill-opacity="1.000000" fill-rule="evenodd"/>
	</g>
</svg>
