<svg width="1096.987671" height="373.675781" viewBox="0 0 1096.99 373.676" fill="none" xmlns="http://www.w3.org/2000/svg" xmlns:xlink="http://www.w3.org/1999/xlink">
	<desc>
			Created with Pixso.
	</desc>
	<defs>
		<filter id="filter_12_9_dd" x="0.000000" y="0.000000" width="1096.987671" height="373.675781" filterUnits="userSpaceOnUse" color-interpolation-filters="sRGB">
			<feFlood flood-opacity="0" result="BackgroundImageFix"/>
			<feColorMatrix in="SourceAlpha" type="matrix" values="0 0 0 0 0 0 0 0 0 0 0 0 0 0 0 0 0 0 127 0" result="hardAlpha"/>
			<feOffset dx="0" dy="0"/>
			<feGaussianBlur stdDeviation="45"/>
			<feComposite in2="hardAlpha" operator="out" k2="-1" k3="1"/>
			<feColorMatrix type="matrix" values="0 0 0 0 0.3098 0 0 0 0 0.76471 0 0 0 0 0.95294 0 0 0 1 0"/>
			<feBlend mode="normal" in2="BackgroundImageFix" result="effect_dropShadow_1"/>
			<feBlend mode="normal" in="SourceGraphic" in2="effect_dropShadow_1" result="shape"/>
		</filter>
	</defs>
	<rect id="Прямоугольник 3" x="80.531250" y="103.234375" rx="62.000000" width="938.000000" height="177.000000" fill="#FFFFFF" fill-opacity="0.200000"/>
	<rect id="Прямоугольник 3" x="84.531250" y="107.234375" rx="62.000000" width="930.000000" height="169.000000" stroke="#BEEDFF" stroke-opacity="1.000000" stroke-width="8.000000"/>
	<g filter="url(#filter_12_9_dd)">
		<path id="GENERATE" d="M229.18 176.44L189.59 176.44Q188.9 176.44 188.29 176.67Q187.5 176.95 186.85 177.6Q186.2 178.26 185.91 179.04Q185.69 179.65 185.69 180.35L185.69 196.34Q185.69 197.04 185.91 197.65Q186.2 198.43 186.85 199.09Q187.47 199.69 188.22 199.97Q188.86 200.21 189.59 200.21L196.34 200.21Q196.34 204.61 194.17 207.14Q191.22 210.58 184.25 210.58Q178.55 210.58 175.6 207.73Q172.44 204.68 172.44 198.35L172.44 173.88Q172.44 168.64 175.06 165.94Q177.83 163.09 183.55 163.09Q186.25 163.09 189.59 164.35Q191.03 164.95 193.92 168.68Q194.03 168.82 194.16 168.94Q195.44 170.26 198.07 170.26L229.92 170.26Q230.46 170.26 230.94 170.09Q231.59 169.87 232.13 169.34Q232.66 168.82 232.89 168.18Q233.08 167.67 233.08 167.09Q233.08 163.31 232.01 159.86Q229.25 150.96 219.37 144.28Q205.69 135 183.58 135Q161.5 135 148.25 145.16Q143.91 148.47 141 152.75Q135 161.55 135 174.44L135 198.63Q135 213.6 142.24 222.98Q144.69 226.15 147.97 228.69Q160.94 238.67 183.48 238.67Q206.01 238.67 219.55 228.37Q224.45 224.64 227.58 219.76Q233.08 211.19 233.08 199.09L233.08 180.35Q233.08 179.65 232.86 179.04Q232.57 178.26 231.92 177.6Q231.27 176.95 230.48 176.67Q229.87 176.44 229.18 176.44ZM327.83 209.14L283.46 209.14L283.46 200.07L323.5 200.07Q324.24 200.07 324.88 199.83Q325.62 199.55 326.25 198.94Q326.9 198.29 327.18 197.51Q327.41 196.9 327.41 196.2L327.41 177.46Q327.41 176.73 327.16 176.09Q326.87 175.36 326.25 174.76Q325.59 174.11 324.81 173.82Q324.2 173.6 323.5 173.6L283.46 173.6L283.46 164.53L326.67 164.53Q327.36 164.53 327.97 164.3Q328.76 164.02 329.41 163.37Q330.06 162.71 330.35 161.93Q330.57 161.32 330.57 160.62L330.57 140.3Q330.57 139.57 330.32 138.93Q330.03 138.2 329.41 137.6Q328.76 136.95 327.97 136.66Q327.36 136.44 326.67 136.44L252.8 136.44Q252.11 136.44 251.5 136.66Q250.71 136.95 250.06 137.6Q249.44 138.2 249.15 138.93Q248.9 139.57 248.9 140.3L248.9 233.33Q248.9 234.02 249.12 234.63Q249.41 235.42 250.06 236.07Q250.71 236.72 251.5 237.01Q252.11 237.23 252.8 237.23L327.83 237.23Q328.56 237.23 329.2 236.98Q329.93 236.69 330.54 236.07Q331.19 235.42 331.47 234.63Q331.7 234.02 331.7 233.33L331.7 213.04Q331.7 212.35 331.47 211.74Q331.19 210.95 330.54 210.3Q329.93 209.68 329.2 209.39Q328.56 209.14 327.83 209.14ZM435.82 136.44L409.77 136.44Q409.07 136.44 408.46 136.66Q407.68 136.95 407.03 137.6Q406.4 138.2 406.12 138.93Q405.87 139.57 405.87 140.3L405.87 179.64L381.54 139.74Q380.72 138.3 379.49 137.48Q377.9 136.44 375.63 136.44L352.88 136.44Q352.19 136.44 351.58 136.66Q350.79 136.95 350.14 137.6Q349.52 138.2 349.23 138.93Q348.98 139.57 348.98 140.3L348.98 233.33Q348.98 234.02 349.2 234.63Q349.49 235.42 350.14 236.07Q350.79 236.72 351.58 237.01Q352.19 237.23 352.88 237.23L378.94 237.23Q379.63 237.23 380.24 237.01Q381.03 236.72 381.68 236.07Q382.33 235.42 382.62 234.63Q382.84 234.02 382.84 233.33L382.84 197.19L407.17 233.93Q408.35 235.74 410.02 236.56Q411.38 237.23 413.07 237.23L435.82 237.23Q436.51 237.23 437.12 237.01Q437.91 236.72 438.56 236.07Q439.21 235.42 439.5 234.63Q439.72 234.02 439.72 233.33L439.72 140.3Q439.72 139.57 439.47 138.93Q439.18 138.2 438.56 137.6Q437.91 136.95 437.12 136.66Q436.51 136.44 435.82 136.44ZM537.35 209.14L492.98 209.14L492.98 200.07L533.02 200.07Q533.76 200.07 534.4 199.83Q535.14 199.55 535.77 198.94Q536.42 198.29 536.7 197.51Q536.93 196.9 536.93 196.2L536.93 177.46Q536.93 176.73 536.68 176.09Q536.39 175.36 535.77 174.76Q535.11 174.11 534.33 173.82Q533.72 173.6 533.02 173.6L492.98 173.6L492.98 164.53L536.19 164.53Q536.88 164.53 537.49 164.3Q538.28 164.02 538.93 163.37Q539.58 162.71 539.87 161.93Q540.09 161.32 540.09 160.62L540.09 140.3Q540.09 139.57 539.84 138.93Q539.55 138.2 538.93 137.6Q538.28 136.95 537.49 136.66Q536.88 136.44 536.19 136.44L462.32 136.44Q461.63 136.44 461.02 136.66Q460.23 136.95 459.58 137.6Q458.96 138.2 458.67 138.93Q458.42 139.57 458.42 140.3L458.42 233.33Q458.42 234.02 458.64 234.63Q458.93 235.42 459.58 236.07Q460.23 236.72 461.02 237.01Q461.63 237.23 462.32 237.23L537.35 237.23Q538.08 237.23 538.72 236.98Q539.45 236.69 540.06 236.07Q540.71 235.42 540.99 234.63Q541.21 234.02 541.21 233.33L541.21 213.04Q541.21 212.35 540.99 211.74Q540.71 210.95 540.06 210.3Q539.45 209.68 538.72 209.39Q538.08 209.14 537.35 209.14ZM651.36 232.73Q651.3 232.6 651.24 232.48L633.53 199.65Q642.39 193.98 646.21 185.93Q649.1 179.83 649.1 172.37Q649.1 160.27 643.44 152.1Q640.97 148.53 637.43 145.72Q625.76 136.44 605.01 136.44L562.4 136.44Q561.71 136.44 561.1 136.66Q560.31 136.95 559.66 137.6Q559.04 138.2 558.75 138.93Q558.5 139.57 558.5 140.3L558.5 233.33Q558.5 234.02 558.72 234.63Q559.01 235.42 559.66 236.07Q560.31 236.72 561.1 237.01Q561.71 237.23 562.4 237.23L590.64 237.23Q591.37 237.23 592.01 236.98Q592.74 236.69 593.34 236.07Q593.99 235.42 594.28 234.63Q594.5 234.02 594.5 233.33L594.5 205.84L600.41 205.84L612.78 233.33Q613.6 235.14 615 236.11Q616.61 237.23 619.01 237.23L648.5 237.23Q649.17 237.23 649.73 236.99Q650.27 236.76 650.72 236.32Q651.59 235.44 651.66 234.51Q651.67 234.43 651.67 234.35Q651.67 233.47 651.36 232.73ZM728.14 136.44L696.89 136.44Q694.13 136.44 692.47 137.79Q691.02 138.97 690.42 141.18L658.32 233.05Q658.14 233.5 658.14 234.45Q658.14 235.37 659.09 236.32Q659.59 236.79 660.18 237.02Q660.72 237.23 661.34 237.23L687.96 237.23Q690.53 237.23 692.03 235.96Q693.05 235.1 693.58 233.64L697.03 224.12L728 224.12L731.44 233.64Q731.97 235.1 733 235.96Q734.5 237.23 737.07 237.23L763.72 237.23Q764.38 237.23 764.95 236.99Q765.49 236.76 765.93 236.32Q766.88 235.37 766.88 234.45Q766.88 233.5 766.74 233.05L734.61 141.18Q734.02 138.99 732.6 137.81Q730.94 136.44 728.14 136.44ZM861.64 136.44L777.23 136.44Q776.54 136.44 775.93 136.66Q775.14 136.95 774.49 137.6Q773.91 138.17 773.63 138.86Q773.36 139.53 773.36 140.3L773.36 163.51Q773.36 164.24 773.6 164.88Q773.88 165.63 774.49 166.25Q775.11 166.85 775.86 167.13Q776.5 167.37 777.23 167.37L801.14 167.37L801.14 233.33Q801.14 234.02 801.36 234.63Q801.64 235.42 802.3 236.07Q802.95 236.72 803.73 237.01Q804.35 237.23 805.04 237.23L833.83 237.23Q834.52 237.23 835.14 237.01Q835.92 236.72 836.57 236.07Q837.23 235.42 837.51 234.63Q837.73 234.02 837.73 233.33L837.73 167.37L861.64 167.37Q862.42 167.37 863.08 167.1Q863.77 166.82 864.35 166.25Q865 165.6 865.28 164.81Q865.51 164.2 865.51 163.51L865.51 140.3Q865.51 139.57 865.26 138.93Q864.97 138.2 864.35 137.6Q863.75 136.98 863.01 136.69Q862.38 136.44 861.64 136.44ZM958.12 209.14L913.75 209.14L913.75 200.07L953.79 200.07Q954.52 200.07 955.16 199.83Q955.91 199.55 956.53 198.94Q957.19 198.29 957.47 197.51Q957.69 196.9 957.69 196.2L957.69 177.46Q957.69 176.73 957.44 176.09Q957.15 175.36 956.53 174.76Q955.88 174.11 955.1 173.82Q954.48 173.6 953.79 173.6L913.75 173.6L913.75 164.53L956.96 164.53Q957.65 164.53 958.26 164.3Q959.05 164.02 959.7 163.37Q960.35 162.71 960.64 161.93Q960.86 161.32 960.86 160.62L960.86 140.3Q960.86 139.57 960.61 138.93Q960.32 138.2 959.7 137.6Q959.05 136.95 958.26 136.66Q957.65 136.44 956.96 136.44L883.09 136.44Q882.4 136.44 881.79 136.66Q881 136.95 880.35 137.6Q879.73 138.2 879.44 138.93Q879.19 139.57 879.19 140.3L879.19 233.33Q879.19 234.02 879.41 234.63Q879.7 235.42 880.35 236.07Q881 236.72 881.79 237.01Q882.4 237.23 883.09 237.23L958.12 237.23Q958.85 237.23 959.49 236.98Q960.22 236.69 960.82 236.07Q961.48 235.42 961.76 234.63Q961.98 234.02 961.98 233.33L961.98 213.04Q961.98 212.35 961.76 211.74Q961.48 210.95 960.82 210.3Q960.22 209.68 959.49 209.39Q958.85 209.14 958.12 209.14ZM594.5 178.48L594.5 163.23L605.01 163.23Q607.15 163.23 608.6 164.23Q609.39 164.77 609.97 165.62Q610.43 166.25 610.76 166.94Q611.66 168.82 611.66 171.14Q611.66 173.65 610.55 175.5Q610.26 175.98 609.9 176.41Q609.41 177 608.8 177.42Q607.28 178.48 605.01 178.48L594.5 178.48ZM720.65 196.06L704.37 196.06L712.46 169.27L720.65 196.06Z" fill="#BEEDFF" fill-opacity="1.000000" fill-rule="evenodd"/>
	</g>
</svg>
